<svg xmlns="http://www.w3.org/2000/svg" viewBox="0 0 64 64"><path d="M15 13.3s-.2 0 0 0C7.8 13.3 1.6 17.8.3 24c-.8 3.7 0 7.5 2.1 10.7 2.1 2.9 5.6 5.1 9.6 5.9l3.5 8.3c.3 1.1 1.6 1.9 2.9 1.9 1.3 0 2.7-.8 3.2-2.1.5-1.6 1.3-3.2 1.9-4.5 1.6-3.7 3.5-7.8 4.8-12 1.6-4.5.8-9.4-1.9-13.1-2.3-3.7-6.6-5.8-11.4-5.8zm8.3 17.1a182 182 0 01-4.5 11.5s0 .3-.3.3l-2.9-7H14c-2.9-.3-5.6-1.6-7.5-3.7-1.3-1.9-1.9-4-1.3-6.4 1.1-3.7 5.1-6.4 9.6-6.4 4 0 6.2 1.9 7.2 3.5 1.8 2.3 2.4 5.3 1.3 8.2zm38-11.2c-2.7-3.7-6.7-5.6-11.8-5.9h-.3c-7 0-13.1 4.5-14.7 10.7-.8 3.7 0 7.5 2.1 10.7 2.1 2.9 5.6 5.1 9.6 5.9l3.5 8.3c.8 1.1 2.1 1.9 3.5 1.9 1.3 0 2.7-.8 3.2-2.1.5-1.6 1.3-3.2 1.9-4.5 1.6-3.7 3.5-7.8 4.8-12 1.7-4.5.9-9.6-1.8-13zm-3.2 11.2a182 182 0 01-4.5 11.5s0 .3-.3.3l-2.9-7h-1.6c-2.9-.3-5.6-1.6-7.5-3.7-1.3-1.9-1.9-4-1.3-6.4.8-3.7 4.8-6.4 9.4-6.4 4 0 6.2 1.9 7.2 3.5 2 2.3 2.6 5.3 1.5 8.2z"/></svg>